<svg width="211" height="38" viewBox="0 0 211 38" fill="none" xmlns="http://www.w3.org/2000/svg">
<path d="M17.1669 6.43502C17.7062 5.19135 19.47 5.19135 20.0093 6.43503L22.2834 11.6794C22.7323 12.7146 23.7085 13.4239 24.8318 13.5309L30.5222 14.0731C31.8717 14.2017 32.4167 15.8791 31.4005 16.7763L27.1156 20.5598C26.2698 21.3066 25.8969 22.4543 26.1422 23.5556L27.385 29.1351C27.6797 30.4582 26.2528 31.4949 25.0855 30.8058L20.1631 27.8997C19.1915 27.326 17.9847 27.326 17.0131 27.8997L12.0907 30.8058C10.9234 31.4949 9.49653 30.4582 9.79124 29.1351L11.034 23.5556C11.2793 22.4543 10.9064 21.3066 10.0606 20.5598L5.77564 16.7763C4.75949 15.8791 5.30451 14.2017 6.65397 14.0731L12.3444 13.5309C13.4677 13.4239 14.4439 12.7146 14.8928 11.6794L17.1669 6.43502Z" fill="#FDBC15"/>
<path d="M60.5395 6.43502C61.0788 5.19135 62.8425 5.19135 63.3818 6.43503L65.6559 11.6794C66.1048 12.7146 67.0811 13.4239 68.2044 13.5309L73.8948 14.0731C75.2442 14.2017 75.7893 15.8791 74.7731 16.7763L70.4882 20.5598C69.6423 21.3066 69.2695 22.4543 69.5148 23.5556L70.7575 29.1351C71.0522 30.4582 69.6253 31.4949 68.458 30.8058L63.5357 27.8997C62.564 27.326 61.3573 27.326 60.3856 27.8997L55.4633 30.8058C54.296 31.4949 52.8691 30.4582 53.1638 29.1351L54.4065 23.5556C54.6519 22.4543 54.279 21.3066 53.4331 20.5598L49.1482 16.7763C48.132 15.8791 48.6771 14.2017 50.0265 14.0731L55.7169 13.5309C56.8402 13.4239 57.8165 12.7146 58.2654 11.6794L60.5395 6.43502Z" fill="#FDBC15"/>
<path d="M103.912 6.43502C104.451 5.19135 106.215 5.19135 106.754 6.43503L109.028 11.6794C109.477 12.7146 110.454 13.4239 111.577 13.5309L117.267 14.0731C118.617 14.2017 119.162 15.8791 118.146 16.7763L113.861 20.5598C113.015 21.3066 112.642 22.4543 112.887 23.5556L114.13 29.1351C114.425 30.4582 112.998 31.4949 111.831 30.8058L106.908 27.8997C105.937 27.326 104.73 27.326 103.758 27.8997L98.8358 30.8058C97.6685 31.4949 96.2417 30.4582 96.5364 29.1351L97.7791 23.5556C98.0244 22.4543 97.6515 21.3066 96.8057 20.5598L92.5208 16.7763C91.5046 15.8791 92.0496 14.2017 93.3991 14.0731L99.0895 13.5309C100.213 13.4239 101.189 12.7146 101.638 11.6794L103.912 6.43502Z" fill="#FDBC15"/>
<path d="M147.285 6.43502C147.824 5.19135 149.588 5.19135 150.127 6.43503L152.401 11.6794C152.85 12.7146 153.826 13.4239 154.949 13.5309L160.64 14.0731C161.989 14.2017 162.534 15.8791 161.518 16.7763L157.233 20.5598C156.387 21.3066 156.015 22.4543 156.26 23.5556L157.503 29.1351C157.797 30.4582 156.37 31.4949 155.203 30.8058L150.281 27.8997C149.309 27.326 148.102 27.326 147.131 27.8997L142.208 30.8058C141.041 31.4949 139.614 30.4582 139.909 29.1351L141.152 23.5556C141.397 22.4543 141.024 21.3066 140.178 20.5598L135.893 16.7763C134.877 15.8791 135.422 14.2017 136.772 14.0731L142.462 13.5309C143.585 13.4239 144.562 12.7146 145.01 11.6794L147.285 6.43502Z" fill="#FDBC15"/>
<path d="M190.657 6.43502C191.196 5.19135 192.96 5.19135 193.499 6.43503L195.774 11.6794C196.223 12.7146 197.199 13.4239 198.322 13.5309L204.012 14.0731C205.362 14.2017 205.907 15.8791 204.891 16.7763L200.606 20.5598C199.76 21.3066 199.387 22.4543 199.632 23.5556L200.875 29.1351C201.17 30.4582 199.743 31.4949 198.576 30.8058L193.653 27.8997C192.682 27.326 191.475 27.326 190.503 27.8997L185.581 30.8058C184.414 31.4949 182.987 30.4582 183.281 29.1351L184.524 23.5556C184.77 22.4543 184.397 21.3066 183.551 20.5598L179.266 16.7763C178.25 15.8791 178.795 14.2017 180.144 14.0731L185.835 13.5309C186.958 13.4239 187.934 12.7146 188.383 11.6794L190.657 6.43502Z" fill="#FDBC15"/>
</svg>
