<svg width="225" height="45" viewBox="0 0 225 45" fill="none" xmlns="http://www.w3.org/2000/svg">
<path d="M39.9068 15.5171L28.7491 13.8955L23.7613 3.78371C23.625 3.50685 23.4009 3.28273 23.1241 3.1465C22.4297 2.80373 21.586 3.08937 21.2388 3.78371L16.251 13.8955L5.09329 15.5171C4.78567 15.5611 4.50442 15.7061 4.28909 15.9258C4.02877 16.1934 3.88532 16.5533 3.89026 16.9266C3.8952 17.2999 4.04814 17.6559 4.31546 17.9165L12.3882 25.7871L10.481 36.9009C10.4363 37.1594 10.4649 37.4253 10.5636 37.6684C10.6623 37.9115 10.8271 38.1221 11.0394 38.2763C11.2517 38.4305 11.5029 38.5221 11.7646 38.5407C12.0263 38.5594 12.288 38.5044 12.52 38.3819L22.5 33.1348L32.48 38.3819C32.7525 38.5269 33.0689 38.5752 33.3721 38.5225C34.1368 38.3906 34.6509 37.6655 34.5191 36.9009L32.6118 25.7871L40.6846 17.9165C40.9043 17.7012 41.0493 17.4199 41.0933 17.1123C41.2119 16.3433 40.6758 15.6314 39.9068 15.5171Z" fill="#DFC226"/>
<path d="M84.9068 15.5171L73.7491 13.8955L68.7613 3.78371C68.625 3.50685 68.4009 3.28273 68.1241 3.1465C67.4297 2.80373 66.586 3.08937 66.2388 3.78371L61.251 13.8955L50.0933 15.5171C49.7857 15.5611 49.5044 15.7061 49.2891 15.9258C49.0288 16.1934 48.8853 16.5533 48.8903 16.9266C48.8952 17.2999 49.0481 17.6559 49.3155 17.9165L57.3882 25.7871L55.481 36.9009C55.4363 37.1594 55.4649 37.4253 55.5636 37.6684C55.6623 37.9115 55.8271 38.1221 56.0394 38.2763C56.2517 38.4305 56.5029 38.5221 56.7646 38.5407C57.0263 38.5594 57.288 38.5044 57.52 38.3819L67.5 33.1348L77.48 38.3819C77.7525 38.5269 78.0689 38.5752 78.3721 38.5225C79.1368 38.3906 79.6509 37.6655 79.5191 36.9009L77.6118 25.7871L85.6846 17.9165C85.9043 17.7012 86.0493 17.4199 86.0933 17.1123C86.2119 16.3433 85.6758 15.6314 84.9068 15.5171Z" fill="#DFC226"/>
<path d="M129.907 15.5171L118.749 13.8955L113.761 3.78371C113.625 3.50685 113.401 3.28273 113.124 3.1465C112.43 2.80373 111.586 3.08937 111.239 3.78371L106.251 13.8955L95.0933 15.5171C94.7857 15.5611 94.5044 15.7061 94.2891 15.9258C94.0288 16.1934 93.8853 16.5533 93.8903 16.9266C93.8952 17.2999 94.0481 17.6559 94.3155 17.9165L102.388 25.7871L100.481 36.9009C100.436 37.1594 100.465 37.4253 100.564 37.6684C100.662 37.9115 100.827 38.1221 101.039 38.2763C101.252 38.4305 101.503 38.5221 101.765 38.5407C102.026 38.5594 102.288 38.5044 102.52 38.3819L112.5 33.1348L122.48 38.3819C122.752 38.5269 123.069 38.5752 123.372 38.5225C124.137 38.3906 124.651 37.6655 124.519 36.9009L122.612 25.7871L130.685 17.9165C130.904 17.7012 131.049 17.4199 131.093 17.1123C131.212 16.3433 130.676 15.6314 129.907 15.5171Z" fill="#DFC226"/>
<path d="M174.907 15.5171L163.749 13.8955L158.761 3.78371C158.625 3.50685 158.401 3.28273 158.124 3.1465C157.43 2.80373 156.586 3.08937 156.239 3.78371L151.251 13.8955L140.093 15.5171C139.786 15.5611 139.504 15.7061 139.289 15.9258C139.029 16.1934 138.885 16.5533 138.89 16.9266C138.895 17.2999 139.048 17.6559 139.315 17.9165L147.388 25.7871L145.481 36.9009C145.436 37.1594 145.465 37.4253 145.564 37.6684C145.662 37.9115 145.827 38.1221 146.039 38.2763C146.252 38.4305 146.503 38.5221 146.765 38.5407C147.026 38.5594 147.288 38.5044 147.52 38.3819L157.5 33.1348L167.48 38.3819C167.752 38.5269 168.069 38.5752 168.372 38.5225C169.137 38.3906 169.651 37.6655 169.519 36.9009L167.612 25.7871L175.685 17.9165C175.904 17.7012 176.049 17.4199 176.093 17.1123C176.212 16.3433 175.676 15.6314 174.907 15.5171Z" fill="#DFC226"/>
<path d="M219.907 15.5171L208.749 13.8955L203.761 3.78371C203.625 3.50685 203.401 3.28273 203.124 3.1465C202.43 2.80373 201.586 3.08937 201.239 3.78371L196.251 13.8955L185.093 15.5171C184.786 15.5611 184.504 15.7061 184.289 15.9258C184.029 16.1934 183.885 16.5533 183.89 16.9266C183.895 17.2999 184.048 17.6559 184.315 17.9165L192.388 25.7871L190.481 36.9009C190.436 37.1594 190.465 37.4253 190.564 37.6684C190.662 37.9115 190.827 38.1221 191.039 38.2763C191.252 38.4305 191.503 38.5221 191.765 38.5407C192.026 38.5594 192.288 38.5044 192.52 38.3819L202.5 33.1348L212.48 38.3819C212.752 38.5269 213.069 38.5752 213.372 38.5225C214.137 38.3906 214.651 37.6655 214.519 36.9009L212.612 25.7871L220.685 17.9165C220.904 17.7012 221.049 17.4199 221.093 17.1123C221.212 16.3433 220.676 15.6314 219.907 15.5171Z" fill="#DFC226"/>
</svg>
